<?xml version="1.0" encoding="utf-8"?>
<!-- Generator: Adobe Illustrator 17.0.1, SVG Export Plug-In . SVG Version: 6.00 Build 0)  -->
<!DOCTYPE svg PUBLIC "-//W3C//DTD SVG 1.1//EN" "http://www.w3.org/Graphics/SVG/1.1/DTD/svg11.dtd">
<svg version="1.1" xmlns="http://www.w3.org/2000/svg" xmlns:xlink="http://www.w3.org/1999/xlink" x="0px" y="0px" width="2088px"
	 height="2355.2px" viewBox="0 0 2088 2355.2" enable-background="new 0 0 2088 2355.2" xml:space="preserve">
<g id="Layer_1">
</g>
<g id="Layer_3">
</g>
<g id="Layer_4">
	<g>
		<g>
			<g>
				<path fill="#FFFFFF" d="M786,1538.2l39.1,245.4l938.8-17.8l88.9-256c0,0-259.6-341.4-273.8-352.1
					C1564.8,1147,786,1538.2,786,1538.2z"/>
				<path d="M825.1,1788.8c-2.5,0-4.7-1.8-5.1-4.4L780.9,1539c-0.4-2.2,0.8-4.4,2.8-5.5c77.7-39,760.1-381.3,794.4-381.3
					c1.6,0,3,0.4,4.1,1.3c14.4,10.8,248.2,318.1,274.8,353.1c1.1,1.4,1.3,3.2,0.8,4.8l-88.9,256c-0.7,2.1-2.6,3.4-4.8,3.5
					L825.1,1788.8C825.2,1788.8,825.2,1788.8,825.1,1788.8z M791.7,1541.1l37.8,237.2l930.7-17.6l86.8-250
					c-101.3-133.2-252.9-330.6-270.1-347.9C1541.9,1168.7,1091.7,1390.5,791.7,1541.1z"/>
			</g>
			<g>
				<path fill="#662D91" d="M135.2,1751.6L17.9,1950.7c0,0,21.2,70.5,131.6,110.2c88.9,32,184.9,32,184.9,32l81.8-302.3"/>
				<path fill="#662D91" d="M135.2,1751.6c-9.3,16.9-18.7,33.7-28.1,50.5l-28.3,50.4l-57.4,100.3l0.4-3.2c2.3,6.4,6,13.2,9.9,19.3
					c3.9,6.3,8.4,12.2,13.1,17.9c2.3,2.9,5,5.5,7.4,8.3c2.5,2.7,5.3,5.2,7.9,7.8c2.6,2.7,5.6,4.9,8.4,7.4l4.3,3.6l4.5,3.3
					c3,2.2,5.9,4.5,9,6.6l9.4,6c3.1,2.1,6.4,3.8,9.7,5.6c3.3,1.8,6.5,3.7,9.8,5.4l10.2,4.8c3.4,1.6,6.7,3.3,10.3,4.5l10.5,4.1l5.1,2
					l5.4,1.8l10.8,3.6l10.8,3.2c7.1,2.2,14.5,3.9,21.8,5.8c7.4,1.6,14.7,3.5,22.1,4.9l11.1,2.2l11.2,1.9c7.4,1.2,14.9,2.3,22.4,3.3
					c7.5,1,15,1.8,22.5,2.6c7.5,0.7,15,1.3,22.6,1.8c7.5,0.5,15.1,0.9,22.5,1l-4.6,3.5c7-25.1,13.9-50.3,21.1-75.4l21.4-75.3
					l10.7-37.7l11-37.6l11-37.6c3.6-12.5,7.5-25,11.2-37.5c-3.1,12.7-6.1,25.4-9.2,38l-9.4,38l-9.5,38l-9.7,37.9l-19.5,75.8
					c-6.4,25.3-13.2,50.5-19.8,75.7c-0.6,2.1-2.5,3.5-4.6,3.5c-7.8,0-15.4-0.3-23.1-0.7c-7.7-0.4-15.3-1-22.9-1.7
					c-7.6-0.7-15.2-1.5-22.9-2.5c-7.6-0.9-15.2-2-22.8-3.2l-11.3-1.9l-11.3-2.2c-7.5-1.4-15-3.2-22.5-4.9c-7.4-2-14.9-3.7-22.3-6
					l-11.1-3.3l-10.8-3.7l-5.4-1.8l-5.5-2.2l-10.8-4.3c-3.6-1.3-7.1-3.1-10.6-4.7l-10.5-5c-3.4-1.8-6.8-3.7-10.2-5.6
					c-3.4-1.9-6.8-3.7-10-5.9l-9.7-6.4c-3.2-2.2-6.2-4.6-9.3-6.9l-4.6-3.5l-4.4-3.8c-2.9-2.6-6-5-8.7-7.8c-2.7-2.8-5.6-5.4-8.2-8.3
					c-2.6-2.9-5.3-5.8-7.7-8.8c-4.9-6.1-9.6-12.3-13.5-19.1c-4-6.8-7.6-13.6-10.2-21.5c-0.4-1.1-0.2-2.2,0.3-3.1l0-0.1l59.9-98.8
					l30.4-49.2C114.8,1784.2,125,1767.9,135.2,1751.6z"/>
			</g>
			<g>
				<path fill="#0071BC" d="M906.9,1822.7c0,0-10.7,152.9-14.2,188.5C889.2,2046.7,754,2189,754,2189L434,2128.5l56.9-316.5
					L906.9,1822.7z"/>
				<path fill="#0071BC" d="M754,2194.2c-0.3,0-0.6,0-1-0.1L433,2133.6c-2.8-0.5-4.6-3.2-4.1-6l56.9-316.5c0.5-2.5,2.7-4.4,5.2-4.3
					l416.1,10.7c1.4,0,2.8,0.6,3.7,1.7s1.4,2.4,1.3,3.9c-0.1,1.5-10.7,153.4-14.2,188.6c-3.6,36.3-126.1,166.2-140.1,180.9
					C756.8,2193.6,755.4,2194.2,754,2194.2z M440,2124.4l312.2,59c38.6-40.8,132.6-145.4,135.3-172.7
					c3.1-31.3,11.9-155.4,13.8-182.9l-406.2-10.4L440,2124.4z"/>
			</g>
			<g>
				<path fill="#0071BC" d="M1539.9,1829.8l7.1,177.8c0,0,118.2,106.7,249.8,117.4c131.6,10.7,184.9-74.7,202.7-99.6
					c17.8-24.9,11.4-223.5,11.4-223.5"/>
				<path fill="#0071BC" d="M1819.2,2131.1c-7.4,0-15-0.3-22.8-0.9c-131.8-10.7-251.6-117.6-252.8-118.7c-1-0.9-1.7-2.3-1.7-3.6
					l-7.1-177.8l10.4-0.4l7,175.6c14.6,12.6,125,104.9,245.1,114.6c122.7,9.9,175.5-65.3,195.4-93.7c1-1.4,1.8-2.6,2.6-3.8
					c12.3-17.2,13-141.2,10.5-220.4l10.4-0.3c0.7,20.5,5.9,201.1-12.4,226.7c-0.8,1.1-1.7,2.3-2.6,3.7
					C1981.6,2059.9,1931.6,2131.1,1819.2,2131.1z"/>
			</g>
			<g>
				<path fill="#29ABE2" d="M81.9,1673.3c0,0,53.3,145.8,113.8,170.7s192,60.5,192,60.5s344.9-64,512.1-17.8
					c21.3-17.8,10.7-56.9,67.6-60.5c56.9-3.6,508.5,7.1,537,10.7c28.4,3.6,39.1,49.8,39.1,49.8l469.7-24.9l8.2-399.1L81.9,1673.3z"
					/>
				<path fill="#29ABE2" d="M387.7,1909.7c-0.5,0-0.9-0.1-1.4-0.2c-1.3-0.4-132.6-35.9-192.7-60.7
					c-61.9-25.5-114.5-167.7-116.7-173.7c-0.5-1.5-0.4-3.2,0.5-4.5c0.8-1.4,2.3-2.2,3.8-2.4l1939.4-210.6c1.5-0.2,3,0.3,4.1,1.3
					c1.1,1,1.7,2.4,1.7,3.9l-8.2,399.1c-0.1,2.7-2.2,4.9-4.9,5.1l-469.7,24.9c-2.5,0.1-4.8-1.6-5.3-4c-0.1-0.4-10.2-42.7-34.7-45.8
					c-24.6-3.1-361.2-11.3-491.6-11.3c-22,0-36.9,0.2-44.4,0.7c-34.8,2.2-41.6,17.9-48.8,34.6c-3.8,8.8-7.7,17.9-15.8,24.6
					c-1.3,1.1-3.1,1.5-4.7,1c-39.8-11-93.4-16.6-159.4-16.6c-162.7,0-348.5,34.1-350.3,34.5C388.4,1909.6,388.1,1909.7,387.7,1909.7
					z M89.2,1677.8c10.9,27.9,57.8,140.6,108.5,161.5c56.5,23.3,177.3,56.4,190.3,59.9c16.2-2.9,194.2-34.4,351-34.4
					c65.4,0,119,5.5,159.4,16.2c4.9-5,7.9-11.8,10.9-19c7.4-17.1,16.5-38.3,57.7-40.9c7.7-0.5,22.9-0.7,45-0.7
					c130.7,0,468.1,8.3,492.9,11.4c26.5,3.3,38.8,37.4,42.4,49.5l460.7-24.4l8-388.3L89.2,1677.8z"/>
			</g>
			<g>
				<path fill="#9E005D" d="M810.9,1083c110.2-49.8,220.4-300.9,202.7-487.2c-14.2-149.4-49.8-544.1-49.8-544.1
					s152.9-71.1,195.6,21.3c42.7,92.5,120.9,885.5,120.9,885.5l14.2,106.7"/>
				<path fill="#9E005D" d="M813.1,1087.7l-4.3-9.5c51.3-23.2,106.2-94.1,146.7-189.7c41.9-98.9,61.2-205.5,53-292.3
					C994.4,448.6,959,56.1,958.7,52.2c-0.2-2.2,1-4.2,3-5.2c3.8-1.8,92.9-42.6,155.4-19.7c21.6,7.9,37.4,22.6,47.1,43.6
					c42.6,92.2,118.2,854.7,121.4,887.1l14.2,106.5l-10.3,1.4l-14.2-106.7c-0.8-8.1-78.7-793.4-120.5-884
					c-8.5-18.4-22.4-31.2-41.3-38.2C1061.4,18,986,47.9,969.3,55c3.7,40.6,36.1,400.4,49.4,540.3
					C1036.2,777.9,928.5,1035.6,813.1,1087.7z"/>
			</g>
			<g>
				<g>
					<circle fill="#FBC926" cx="633.1" cy="2082.2" r="256"/>
					<path fill="#FBC926" d="M633.1,2345.2c-145,0-263-118-263-263s118-263,263-263c145,0,263,118,263,263
						S778.1,2345.2,633.1,2345.2z M633.1,1833.1c-137.4,0-249.1,111.8-249.1,249.1s111.8,249.1,249.1,249.1
						c137.4,0,249.1-111.8,249.1-249.1S770.5,1833.1,633.1,1833.1z"/>
				</g>
				<g>
					<circle fill="#1B1464" cx="633.1" cy="2082.2" r="124.5"/>
					<path fill="#1B1464" d="M758.1,2082.3c0,0-0.1,3.1-0.4,8.8c-0.1,1.4,0,3-0.3,4.8c-0.3,1.8-0.5,3.7-0.8,5.7
						c-0.3,2.1-0.5,4.3-1,6.7c-0.5,2.3-1.1,4.8-1.7,7.4c-0.3,1.3-0.6,2.7-1,4c-0.5,1.3-0.9,2.7-1.4,4.1c-1,2.8-1.8,5.9-3.1,8.8
						c-1.3,3-2.7,6.1-4.1,9.3c-1.6,3.1-3.4,6.3-5.3,9.6c-7.8,12.9-19,26.5-34.5,37.5c-15.4,10.9-35.2,18.8-56.8,21.2
						c-2.7,0.4-5.4,0.3-8.2,0.4l-4.1,0.1l-2.1,0.1l-0.5,0l-0.3,0l-0.5,0l-1-0.1c-5.4-0.5-10.7-0.6-16.5-1.9
						c-11.5-1.7-22.3-5.6-33-10.5c-10.6-5-20.4-11.9-29.6-19.5c-9-7.9-17-17.1-23.9-27.1l-4.8-7.8c-1.7-2.6-2.8-5.5-4.2-8.2
						l-2.1-4.1c-0.6-1.4-1.1-2.9-1.7-4.3c-1.1-2.9-2.3-5.7-3.2-8.7c-3.8-11.8-5.8-24.2-6.3-36.6c0.3-6.4-0.1-12.2,1-18.6l0.6-4.7
						l0.3-2.4l0.5-2.3l2.1-9.2c3.6-12,8.7-23.6,15.3-34.1c6.9-10.4,15.1-19.8,24.3-27.8c9.5-7.8,19.6-14.6,30.5-19.5
						c10.9-4.8,22.2-8.4,33.7-9.8c5.7-1.1,11.4-1.1,17-1.4l1.1,0l0.5,0l0.3,0c0,0,0.7,0,0.5,0l2,0.1l4,0.2c2.7,0.2,5.2,0.2,8,0.6
						c2.8,0.4,5.5,0.9,8.2,1.3c1.3,0.2,2.7,0.4,4,0.7l3.9,1c2.6,0.7,5.1,1.4,7.6,2c2.5,0.8,4.9,1.9,7.3,2.8
						c4.9,1.7,9.3,4.2,13.7,6.4c2.3,1,4.3,2.5,6.3,3.8c2,1.3,4,2.6,6,3.9c15.5,11.1,26.6,24.7,34.4,37.7c1.8,3.3,3.6,6.5,5.3,9.6
						c1.4,3.2,2.8,6.3,4.1,9.3c1.3,3,2.1,6,3.1,8.9c0.5,1.4,0.9,2.8,1.4,4.1c0.3,1.4,0.6,2.7,1,4c0.6,2.6,1.2,5.1,1.7,7.4
						c0.5,2.3,0.6,4.6,1,6.7c0.3,2.1,0.6,4,0.8,5.7c0.2,1.8,0.2,3.4,0.3,4.8C758,2079.2,758.1,2082.2,758.1,2082.3L758.1,2082.3z
						 M757.1,2082.2c0,0-0.2-3-0.5-8.7c-0.1-1.4-0.1-3-0.4-4.7c-0.3-1.7-0.6-3.6-0.9-5.7c-0.4-2-0.6-4.2-1.2-6.5
						c-0.6-2.3-1.3-4.7-2-7.2c-3.1-10.1-8.1-22.2-16.8-34c-8.5-11.9-20.4-23.6-35.4-33c-7.7-4.4-15.8-8.8-24.8-11.8
						c-2.2-0.8-4.5-1.5-6.8-2.3c-2.3-0.6-4.7-1.2-7.1-1.7l-3.6-0.9c-1.2-0.3-2.4-0.4-3.6-0.6c-2.4-0.3-4.8-0.7-7.2-1.1
						c-2.4-0.4-5.2-0.3-7.8-0.5l-4-0.2l-2-0.1l-1.7,0.1c-5.1,0.3-10.4,0.3-15.6,1.3c-10.5,1.2-20.8,4.6-30.9,8.7
						c-10.1,4.2-19.6,10.3-28.5,17.3c-8.8,7.2-16.4,15.8-23.2,25.2c-6.6,9.6-11.7,20.2-15.5,31.3l-2.5,8.5l-0.6,2.1l-0.4,2.2
						l-0.8,4.3c-1.3,5.6-1.4,12.1-2,17.8c0,11.9,1.2,23.9,4.4,35.5c3.5,11.5,8.4,22.5,14.9,32.4c1.6,2.5,3.5,4.8,5.3,7.2
						c0.9,1.2,1.7,2.4,2.7,3.5l3,3.2c2.1,2.1,3.8,4.5,6.1,6.3c2.2,1.9,4.4,3.8,6.6,5.8c2.2,1.8,4.7,3.4,7,5.1
						c1.2,0.8,2.3,1.7,3.5,2.5l3.7,2.1c2.5,1.4,4.9,2.9,7.5,4.1c2.6,1.1,5.2,2.3,7.7,3.4c10.4,4,21.2,7.1,31.6,8
						c5.1,0.9,10.7,0.7,16,0.9l1,0l0.5,0l0.3,0c0.1,0-0.3,0,0,0l1.9-0.1l3.9-0.3c2.6-0.2,5.1-0.2,7.6-0.6c20.1-2.6,38.2-9.7,53.3-19
						c15-9.4,26.8-21.2,35.4-33.1c8.7-11.8,13.7-23.9,16.8-34c0.7-2.6,1.4-5,2-7.3c0.6-2.3,0.8-4.5,1.2-6.5c0.3-2,0.6-3.9,0.9-5.6
						c0.3-1.7,0.2-3.3,0.4-4.8C756.9,2085.2,757.1,2082.2,757.1,2082.2L757.1,2082.2z"/>
				</g>
			</g>
			<g>
				<g>
					<circle fill="#FBC926" cx="1730.7" cy="2082.2" r="256"/>
					<path fill="#FBC926" d="M1730.7,2345.2c-145,0-263-118-263-263s118-263,263-263s263,118,263,263S1875.7,2345.2,1730.7,2345.2z
						 M1730.7,1833.1c-137.4,0-249.1,111.8-249.1,249.1s111.8,249.1,249.1,249.1s249.1-111.8,249.1-249.1
						S1868.1,1833.1,1730.7,1833.1z"/>
				</g>
				<g>
					<circle fill="#1B1464" cx="1730.7" cy="2082.2" r="124.5"/>
					<path fill="#1B1464" d="M1855.7,2082.3c0,0-0.1,3.1-0.4,8.8c-0.1,1.4-0.1,3-0.3,4.8c-0.3,1.8-0.5,3.7-0.8,5.7
						c-0.3,2.1-0.5,4.3-1,6.7c-0.5,2.3-1.1,4.8-1.7,7.4c-0.3,1.3-0.6,2.7-1,4c-0.5,1.3-0.9,2.7-1.4,4.1c-1,2.8-1.8,5.9-3.1,8.8
						c-1.3,3-2.7,6.1-4.1,9.3c-1.6,3.1-3.4,6.3-5.3,9.6c-7.8,12.9-19,26.5-34.5,37.5c-15.4,10.9-35.2,18.8-56.8,21.2
						c-2.7,0.4-5.4,0.3-8.2,0.4l-4.1,0.1l-2.1,0.1l-0.5,0l-0.3,0l-0.5,0l-1-0.1c-5.4-0.5-10.7-0.6-16.5-1.9
						c-11.5-1.7-22.3-5.6-33-10.5c-10.6-5-20.4-11.9-29.6-19.5c-9-7.9-17-17.1-23.9-27.1l-4.8-7.8c-1.7-2.6-2.8-5.5-4.2-8.2
						l-2.1-4.1c-0.6-1.4-1.1-2.9-1.7-4.3c-1.1-2.9-2.3-5.7-3.2-8.7c-3.8-11.8-5.8-24-6.3-36.8c-0.1-12,1.2-25,4.5-37.1
						c3.6-12,8.7-23.6,15.3-34.1c6.9-10.4,15.1-19.8,24.3-27.8c9.5-7.8,19.6-14.6,30.5-19.5c10.9-4.8,22.2-8.4,33.7-9.8
						c5.7-1.1,11.4-1.1,17-1.4l1.1,0l0.5,0l0.3,0c0,0,0.7,0,0.5,0l2,0.1l4,0.2c2.7,0.2,5.2,0.2,8,0.6c2.8,0.4,5.5,0.9,8.2,1.3
						c1.3,0.2,2.7,0.4,4,0.7l3.9,1c2.6,0.7,5.1,1.4,7.6,2c2.5,0.8,4.9,1.9,7.3,2.8c4.9,1.7,9.3,4.2,13.7,6.4c2.3,1,4.3,2.5,6.3,3.8
						c2,1.3,4,2.6,6,3.9c15.5,11.1,26.6,24.7,34.4,37.7c1.8,3.3,3.6,6.5,5.3,9.6c1.4,3.2,2.8,6.3,4.1,9.3c1.3,3,2.1,6,3.1,8.9
						c0.5,1.4,0.9,2.8,1.4,4.1c0.3,1.4,0.6,2.7,1,4c0.6,2.6,1.2,5.1,1.7,7.4c0.5,2.3,0.6,4.6,1,6.7c0.3,2.1,0.6,4,0.8,5.7
						c0.2,1.8,0.2,3.4,0.3,4.8C1855.6,2079.2,1855.7,2082.2,1855.7,2082.3L1855.7,2082.3z M1854.7,2082.2c0,0-0.2-3-0.5-8.7
						c-0.1-1.4-0.1-3-0.4-4.7c-0.3-1.7-0.6-3.6-0.9-5.7c-0.4-2-0.6-4.2-1.2-6.5c-0.6-2.3-1.3-4.7-2-7.2c-3.1-10.1-8.1-22.2-16.8-34
						c-8.5-11.9-20.4-23.6-35.4-33c-7.7-4.4-15.8-8.8-24.8-11.8c-2.2-0.8-4.5-1.5-6.8-2.3c-2.3-0.6-4.7-1.2-7.1-1.7l-3.6-0.9
						c-1.2-0.3-2.4-0.4-3.6-0.6c-2.4-0.3-4.8-0.7-7.2-1.1c-2.4-0.4-5.2-0.3-7.8-0.5l-4-0.2l-2-0.1l-1.7,0.1
						c-5.1,0.3-10.4,0.3-15.6,1.3c-10.5,1.2-20.8,4.6-30.9,8.7c-10.1,4.2-19.6,10.3-28.5,17.3c-8.8,7.2-16.4,15.8-23.2,25.2
						c-6.6,9.6-11.7,20.2-15.5,31.3c-3.7,11.3-5.6,22.7-6.2,35.1c0,11.6,1.2,23.9,4.4,35.4c3.5,11.5,8.4,22.5,14.9,32.4
						c1.6,2.5,3.5,4.8,5.3,7.2c0.9,1.2,1.7,2.4,2.7,3.5l3,3.2c2.1,2.1,3.8,4.5,6.1,6.3c2.2,1.9,4.4,3.8,6.6,5.8
						c2.2,1.8,4.7,3.4,7,5.1c1.2,0.8,2.3,1.7,3.5,2.5l3.7,2.1c2.5,1.4,4.9,2.9,7.5,4.1c2.6,1.1,5.2,2.3,7.7,3.4
						c10.4,4,21.2,7.1,31.6,8c5.1,0.9,10.7,0.7,16,0.9l1,0l0.5,0l0.3,0c0.1,0-0.3,0,0,0l1.9-0.1l3.9-0.3c2.6-0.2,5.1-0.2,7.6-0.6
						c20.1-2.6,38.2-9.7,53.3-19c15-9.4,26.8-21.2,35.4-33.1c8.7-11.8,13.7-23.9,16.8-34c0.7-2.6,1.4-5,2-7.3
						c0.6-2.3,0.8-4.5,1.2-6.5c0.3-2,0.6-3.9,0.9-5.6c0.3-1.7,0.2-3.3,0.4-4.8C1854.5,2085.2,1854.7,2082.2,1854.7,2082.2
						L1854.7,2082.2z"/>
				</g>
			</g>
			<g>
				<path fill="#FCEE21" d="M2020,1292.8v376.9c0,0-465.8,49-526.3,49.1c1.7-48.5-7.1-162.9-7.1-162.9s-167.1,17.8-295.2,71.1
					c-128,53.3-373.4,138.7-544.1,138.7s-526.3-28.4-561.9-71.1c-35.6-42.7-49.8-103.1-42.7-167.1"/>
				<path fill="#FCEE21" d="M647.3,1771c-146.6,0-526.3-25.6-565.9-73c-35.8-42.9-51.3-103.7-43.8-171l10.3,1.1
					c-7.2,64.5,7.6,122.5,41.5,163.2c33.3,40,386.7,69.3,557.9,69.3c200.1,0,486.7-115.2,542.1-138.3
					c127.2-53,294.9-71.3,296.6-71.5c1.4-0.2,2.8,0.3,3.9,1.2c1.1,0.9,1.7,2.2,1.9,3.6c0.1,1.1,8.2,107.1,7.3,158
					c73.2-2.3,468.2-43.5,515.8-48.5v-372.3h10.4v376.9c0,2.7-2,4.9-4.6,5.2c-19,2-466.8,49.1-526.8,49.2c0,0,0,0,0,0
					c-1.4,0-2.8-0.6-3.7-1.6c-1-1-1.5-2.4-1.5-3.8c1.4-41.7-5-133.8-6.7-157c-29.5,3.6-175.3,23-288.4,70.1
					C1137.7,1655.1,849.4,1771,647.3,1771z"/>
			</g>
			<g>
				<path fill="#ED1E79" d="M1941.8,90.9c-10.7,128-35.6,320.1,17.8,515.6c53.3,195.6,124.5,373.4,106.7,526.3
					c-17.8,152.9-46.2,231.1-46.2,231.1s-165.9,64.3-362.7,92.5c-273.8,39.1-639.8,160.8-736.1,192
					c-131.6,42.7-700.2,58.3-867.7-53.3c-32-21.3-56.9-213.4,17.8-248.9c74.7-35.6,501.4-135.1,661.4-234.7s289.4-269.2,323.6-437.4
					c39.1-192,60.5-448.1,67.6-590.3c3.9-78.2,46.2-74.7,152.9-60.5S1941.8,90.9,1941.8,90.9z"/>
				<path fill="#ED1E79" d="M569,1685.7c-116.9,0-401.5-8.4-518.4-86.3c-21.4-14.2-37.3-87.9-32.7-151.6
					c3.9-54.8,22.1-92.5,51.1-106.3c25.5-12.2,90.4-31.3,172.4-55.6c161.6-47.8,383-113.2,488.5-178.9
					c162-100.8,288.1-271.2,321.3-434c37.2-182.4,59.6-431.6,67.5-589.5c2.7-53.5,22.8-73.4,74.3-73.4c22.1,0,50.1,3.5,84.5,8.1
					c105.4,14.1,659.2,67,664.8,67.5c2.8,0.3,4.9,2.8,4.7,5.6c-1,12.5-2.2,25.6-3.4,39.2c-11.3,126.2-26.8,299,21.1,474.6
					c11.8,43.1,24.5,85.7,36.8,126.8c43.2,144.6,84,281.3,70.1,401.5c-17.6,151.8-46.2,231.5-46.5,232.3c-0.5,1.4-1.6,2.5-3,3.1
					c-1.7,0.6-168.7,64.9-363.9,92.8c-260.3,37.2-606.1,149.8-719.7,186.8l-15.6,5.1C863.1,1672.7,720.9,1685.7,569,1685.7z
					 M1192.9,20.4c-46,0-61.5,15.4-63.9,63.6c-7.9,158.3-30.4,408.1-67.7,591.1c-33.7,165.5-161.7,338.6-326,440.8
					c-106.7,66.4-328.9,132.1-491,180c-81.6,24.1-146.1,43.2-170.9,55c-34.4,16.4-43.1,68.3-45.2,97.7
					c-4.6,63.5,11.6,131.2,28.1,142.2c79.4,52.9,271.1,84.6,512.6,84.6c151,0,291.9-12.8,350.6-31.8l15.6-5.1
					c113.8-37.1,460.2-149.9,721.4-187.2c181.7-26,338.9-83.6,359.3-91.3c4.6-13.8,29.3-91.3,45.2-227.8
					c13.7-118.1-26.8-253.7-69.7-397.3c-12.3-41.2-25-83.8-36.8-127c-48.4-177.4-32.8-351.3-21.4-478.3c1.1-11.8,2.1-23.1,3-34
					c-56.4-5.4-560-53.8-660.1-67.1C1242.1,23.9,1214.4,20.4,1192.9,20.4z"/>
			</g>
			<g>
				<g>
					<circle fill="#FBCC34" cx="1219.9" cy="162" r="49.8"/>
					<path fill="#FBCC34" d="M1219.9,216.9c-30.3,0-55-24.7-55-55s24.7-55,55-55c30.3,0,55,24.7,55,55S1250.2,216.9,1219.9,216.9z
						 M1219.9,117.4c-24.6,0-44.6,20-44.6,44.6s20,44.6,44.6,44.6c24.6,0,44.6-20,44.6-44.6S1244.5,117.4,1219.9,117.4z"/>
				</g>
				<g>
					<circle fill="#9E005D" cx="1219.9" cy="162" r="24.9"/>
					<path fill="#9E005D" d="M1219.9,192.1c-16.6,0-30.1-13.5-30.1-30.1s13.5-30.1,30.1-30.1c16.6,0,30.1,13.5,30.1,30.1
						S1236.5,192.1,1219.9,192.1z M1219.9,142.3c-10.9,0-19.7,8.8-19.7,19.7s8.8,19.7,19.7,19.7c10.9,0,19.7-8.8,19.7-19.7
						S1230.7,142.3,1219.9,142.3z"/>
				</g>
			</g>
			<g>
				<g>
					<circle fill="#FBCC34" cx="1205.6" cy="336.2" r="49.8"/>
					<path fill="#FBCC34" d="M1205.6,391.2c-30.3,0-55-24.7-55-55c0-30.3,24.7-55,55-55c30.3,0,55,24.7,55,55
						C1260.6,366.5,1236,391.2,1205.6,391.2z M1205.6,291.6c-24.6,0-44.6,20-44.6,44.6c0,24.6,20,44.6,44.6,44.6
						c24.6,0,44.6-20,44.6-44.6C1250.2,311.6,1230.2,291.6,1205.6,291.6z"/>
				</g>
				<g>
					<circle fill="#FFFFFF" cx="1205.6" cy="336.2" r="24.9"/>
					<path d="M1205.6,366.3c-16.6,0-30.1-13.5-30.1-30.1s13.5-30.1,30.1-30.1c16.6,0,30.1,13.5,30.1,30.1S1222.2,366.3,1205.6,366.3
						z M1205.6,316.5c-10.9,0-19.7,8.8-19.7,19.7s8.8,19.7,19.7,19.7s19.7-8.8,19.7-19.7S1216.5,316.5,1205.6,316.5z"/>
				</g>
			</g>
			<g>
				<g>
					<circle fill="#FBCC34" cx="1180.7" cy="510.5" r="49.8"/>
					<path fill="#FBCC34" d="M1180.7,565.4c-30.3,0-55-24.7-55-55c0-30.3,24.7-55,55-55c30.3,0,55,24.7,55,55
						C1235.7,540.8,1211,565.4,1180.7,565.4z M1180.7,465.9c-24.6,0-44.6,20-44.6,44.6c0,24.6,20,44.6,44.6,44.6
						c24.6,0,44.6-20,44.6-44.6C1225.3,485.9,1205.3,465.9,1180.7,465.9z"/>
				</g>
				<g>
					<circle fill="#FFFFFF" cx="1180.7" cy="510.5" r="24.9"/>
					<path d="M1180.7,540.6c-16.6,0-30.1-13.5-30.1-30.1s13.5-30.1,30.1-30.1c16.6,0,30.1,13.5,30.1,30.1S1197.3,540.6,1180.7,540.6
						z M1180.7,490.8c-10.9,0-19.7,8.8-19.7,19.7c0,10.9,8.8,19.7,19.7,19.7c10.9,0,19.7-8.8,19.7-19.7
						C1200.4,499.6,1191.6,490.8,1180.7,490.8z"/>
				</g>
			</g>
			<g>
				<g>
					<circle fill="#FBCC34" cx="1155.8" cy="681.2" r="49.8"/>
					<path fill="#FBCC34" d="M1155.8,736.1c-30.3,0-55-24.7-55-55c0-30.3,24.7-55,55-55c30.3,0,55,24.7,55,55
						C1210.8,711.5,1186.1,736.1,1155.8,736.1z M1155.8,636.6c-24.6,0-44.6,20-44.6,44.6s20,44.6,44.6,44.6
						c24.6,0,44.6-20,44.6-44.6S1180.4,636.6,1155.8,636.6z"/>
				</g>
				<g>
					<circle fill="#FFFFFF" cx="1155.8" cy="681.2" r="24.9"/>
					<path d="M1155.8,711.2c-16.6,0-30.1-13.5-30.1-30.1s13.5-30.1,30.1-30.1c16.6,0,30.1,13.5,30.1,30.1S1172.4,711.2,1155.8,711.2
						z M1155.8,661.5c-10.9,0-19.7,8.8-19.7,19.7c0,10.9,8.8,19.7,19.7,19.7s19.7-8.8,19.7-19.7
						C1175.5,670.3,1166.7,661.5,1155.8,661.5z"/>
				</g>
			</g>
			<g>
				<g>
					<circle fill="#FBCC34" cx="1102.5" cy="844.7" r="49.8"/>
					<path fill="#FBCC34" d="M1102.5,899.7c-30.3,0-55-24.7-55-55c0-30.3,24.7-55,55-55c30.3,0,55,24.7,55,55
						C1157.5,875.1,1132.8,899.7,1102.5,899.7z M1102.5,800.1c-24.6,0-44.6,20-44.6,44.6c0,24.6,20,44.6,44.6,44.6
						c24.6,0,44.6-20,44.6-44.6C1147.1,820.2,1127.1,800.1,1102.5,800.1z"/>
				</g>
				<g>
					<circle fill="#FFFFFF" cx="1102.5" cy="844.7" r="24.9"/>
					<path d="M1102.5,874.8c-16.6,0-30.1-13.5-30.1-30.1s13.5-30.1,30.1-30.1c16.6,0,30.1,13.5,30.1,30.1S1119.1,874.8,1102.5,874.8
						z M1102.5,825c-10.9,0-19.7,8.8-19.7,19.7c0,10.9,8.8,19.7,19.7,19.7s19.7-8.8,19.7-19.7C1122.2,833.9,1113.4,825,1102.5,825z"
						/>
				</g>
			</g>
			<g>
				<g>
					<circle fill="#FBCC34" cx="1003" cy="990.5" r="49.8"/>
					<path fill="#FBCC34" d="M1003,1045.5c-30.3,0-55-24.7-55-55c0-30.3,24.7-55,55-55c30.3,0,55,24.7,55,55
						C1057.9,1020.9,1033.3,1045.5,1003,1045.5z M1003,945.9c-24.6,0-44.6,20-44.6,44.6c0,24.6,20,44.6,44.6,44.6
						c24.6,0,44.6-20,44.6-44.6C1047.5,966,1027.5,945.9,1003,945.9z"/>
				</g>
				<g>
					<circle fill="#FFFFFF" cx="1003" cy="990.5" r="24.9"/>
					<path d="M1003,1020.6c-16.6,0-30.1-13.5-30.1-30.1s13.5-30.1,30.1-30.1s30.1,13.5,30.1,30.1S1019.5,1020.6,1003,1020.6z
						 M1003,970.8c-10.9,0-19.7,8.8-19.7,19.7c0,10.9,8.8,19.7,19.7,19.7c10.9,0,19.7-8.8,19.7-19.7
						C1022.7,979.7,1013.8,970.8,1003,970.8z"/>
				</g>
			</g>
			<g>
				<g>
					<circle fill="#FBCC34" cx="885.6" cy="1107.9" r="49.8"/>
					<path fill="#FBCC34" d="M885.6,1162.9c-30.3,0-55-24.7-55-55s24.7-55,55-55c30.3,0,55,24.7,55,55S915.9,1162.9,885.6,1162.9z
						 M885.6,1063.3c-24.6,0-44.6,20-44.6,44.6s20,44.6,44.6,44.6c24.6,0,44.6-20,44.6-44.6S910.2,1063.3,885.6,1063.3z"/>
				</g>
				<g>
					<circle fill="#FFFFFF" cx="885.6" cy="1107.9" r="24.9"/>
					<path d="M885.6,1138c-16.6,0-30.1-13.5-30.1-30.1c0-16.6,13.5-30.1,30.1-30.1s30.1,13.5,30.1,30.1
						C915.7,1124.5,902.2,1138,885.6,1138z M885.6,1088.2c-10.9,0-19.7,8.8-19.7,19.7s8.8,19.7,19.7,19.7c10.9,0,19.7-8.8,19.7-19.7
						S896.5,1088.2,885.6,1088.2z"/>
				</g>
			</g>
			<g>
				<g>
					<circle fill="#FBCC34" cx="743.4" cy="1207.5" r="49.8"/>
					<path fill="#FBCC34" d="M743.4,1262.4c-30.3,0-55-24.7-55-55c0-30.3,24.7-55,55-55c30.3,0,55,24.7,55,55
						C798.3,1237.8,773.7,1262.4,743.4,1262.4z M743.4,1162.9c-24.6,0-44.6,20-44.6,44.6c0,24.6,20,44.6,44.6,44.6
						c24.6,0,44.6-20,44.6-44.6C788,1182.9,767.9,1162.9,743.4,1162.9z"/>
				</g>
				<g>
					<circle fill="#FFFFFF" cx="743.4" cy="1207.5" r="24.9"/>
					<path d="M743.4,1237.6c-16.6,0-30.1-13.5-30.1-30.1c0-16.6,13.5-30.1,30.1-30.1s30.1,13.5,30.1,30.1
						C773.4,1224.1,759.9,1237.6,743.4,1237.6z M743.4,1187.8c-10.9,0-19.7,8.8-19.7,19.7c0,10.9,8.8,19.7,19.7,19.7
						c10.9,0,19.7-8.8,19.7-19.7C763.1,1196.6,754.2,1187.8,743.4,1187.8z"/>
				</g>
			</g>
			<g>
				<g>
					<circle fill="#FBCC34" cx="590.4" cy="1271.5" r="49.8"/>
					<path fill="#FBCC34" d="M590.4,1326.5c-30.3,0-55-24.7-55-55s24.7-55,55-55c30.3,0,55,24.7,55,55S620.8,1326.5,590.4,1326.5z
						 M590.4,1226.9c-24.6,0-44.6,20-44.6,44.6c0,24.6,20,44.6,44.6,44.6c24.6,0,44.6-20,44.6-44.6
						C635,1246.9,615,1226.9,590.4,1226.9z"/>
				</g>
				<g>
					<circle fill="#FFFFFF" cx="590.4" cy="1271.5" r="24.9"/>
					<path d="M590.4,1301.6c-16.6,0-30.1-13.5-30.1-30.1c0-16.6,13.5-30.1,30.1-30.1s30.1,13.5,30.1,30.1
						C620.5,1288.1,607,1301.6,590.4,1301.6z M590.4,1251.8c-10.9,0-19.7,8.8-19.7,19.7c0,10.9,8.8,19.7,19.7,19.7
						c10.9,0,19.7-8.8,19.7-19.7C610.1,1260.6,601.3,1251.8,590.4,1251.8z"/>
				</g>
			</g>
			<g>
				<g>
					<path fill="#0071BC" d="M995.9,391.3c-7.6,0-15.1-3.8-19.5-10.7c-6.9-10.8-3.7-25.1,7.1-31.9c73.9-47,139.5-41.9,197.3-37.4
						c9.1,0.7,17.6,1.4,26.2,1.9c12.7,0.7,22.5,11.6,21.8,24.4c-0.7,12.7-11.6,22.5-24.4,21.8c-9.1-0.5-18.3-1.2-27.3-1.9
						c-55.5-4.3-107.9-8.4-168.9,30.3C1004.4,390.2,1000.1,391.3,995.9,391.3z"/>
					<path fill="#0071BC" d="M995.8,391.9c0,0-0.6,0-1.7-0.1c-1.1,0-2.8-0.3-4.9-0.8c-4.1-1.1-10.4-4.1-14.5-11.4
						c-0.5-0.9-1-1.8-1.4-2.7c-0.3-1.1-0.7-2.2-1-3.3c-0.4-1.1-0.5-2.3-0.7-3.5c-0.1-1.2-0.4-2.4-0.2-3.7c0-5.1,1.9-10.6,5.8-15.3
						c0.8-1.3,2.1-2.2,3.3-3.3c0.6-0.5,1.1-1,1.9-1.5l1.8-1.2c2.4-1.6,4.9-3.3,7.5-5.1c1.3-0.9,2.6-1.7,3.9-2.6
						c1.4-0.8,2.8-1.7,4.2-2.5c2.8-1.7,5.8-3.4,8.8-5.1c12.2-6.4,26.2-12.1,41.5-16.2c3.9-0.9,7.8-1.8,11.7-2.7
						c4-0.6,8.1-1.3,12.2-2c4.1-0.5,8.3-0.9,12.5-1.4c4.2-0.4,8.5-0.5,12.7-0.8c17.1-0.6,34.8,0,52.6,1c8.9,0.5,17.9,1,26.9,1.5
						c9,0.3,18,0.7,27.1,1l0.8,0l0.4,0l0.7,0.1l1.7,0.2l1.7,0.2c0.5,0,1.1,0.1,1.8,0.4c1.3,0.4,2.6,0.8,3.9,1.3
						c1.2,0.5,2.3,1.2,3.4,1.9c4.3,2.8,8.2,6.7,10.2,11.5c2,4.7,3,10.4,2,15.4l-0.2,1.7l-0.6,2c-0.5,1.3-0.9,2.8-1.5,4l-2,3.4
						c-0.7,1.2-1.7,2.1-2.5,3.1c-3.6,3.9-8.4,6.8-13.6,8l-1.9,0.5c-0.7,0.1-1.3,0.1-2,0.2c-1.3,0.1-2.6,0.2-4,0.2
						c-2.2-0.1-4.4-0.2-6.6-0.4c-8.7-0.5-17.4-1-25.8-1.5c-8.4-0.5-16.7-1-24.8-1.5c-8.1-0.3-15.9-0.7-23.6-0.7
						c-15.3,0-29.6,1.1-42.8,3c-13.1,2-25.1,4.7-35.4,8.3c-5.2,1.7-9.9,3.7-14.3,5.5c-4.3,2-8.3,3.8-11.8,5.7
						c-3.4,1.9-6.5,3.6-9.2,5.2c-1.3,0.8-2.7,1.5-3.8,2.1c-1.2,0.5-2.4,0.9-3.4,1.3c-2.1,0.5-3.8,0.8-4.9,0.8
						C996.4,391.8,995.9,391.9,995.8,391.9L995.8,391.9z M995.9,390.8c0,0,0.6,0,1.6-0.1c1.1,0,2.6-0.3,4.6-0.8
						c3.9-1,9.1-4.8,15.8-9c3.4-2.1,7.3-4.2,11.4-6.6c2.1-1.2,4.4-2.2,6.7-3.5c2.3-1.2,4.7-2.5,7.2-3.6c2.6-1.1,5.2-2.3,7.9-3.5
						c2.8-1.1,5.6-2.2,8.6-3.3c2.9-1.2,6-2,9.2-3.1c3.1-1.1,6.4-1.9,9.8-2.7c13.5-3.3,28.5-4.9,44.4-5.2c4-0.1,7.9,0,12,0
						c4,0.1,8.1,0.3,12.2,0.5c8.2,0.5,16.6,1,25.1,1.9c8.4,0.7,17,1.5,25.7,2.2c2.2,0.2,4.4,0.4,6.5,0.6l2.6-0.1c0.4,0,0.9,0,1.3,0
						l1.3-0.3c3.5-0.6,6.6-2.5,9.2-4.9c0.6-0.7,1.4-1.2,1.8-2l1.5-2.3c0.5-0.8,0.6-1.5,1-2.2l0.5-1.1l0.3-1.6c1-3.8,0.4-7.5-0.8-11
						c-1.1-3.6-3.8-6.6-6.8-9c-0.8-0.5-1.6-1.2-2.4-1.6c-0.8-0.3-1.6-0.7-2.5-1.1c-0.4-0.2-0.9-0.4-1.5-0.5l-1.7-0.3l-1.7-0.3
						l-0.2,0c0,0-0.4-0.1,0,0l-0.4,0l-0.8-0.1c-18-1.8-36-4.1-53.8-5c-17.7-1-35.3-0.8-52,1.5c-16.7,2-32.5,5.7-47.1,10.1
						c-14.6,4.3-28,9.7-40.3,14.9c-3,1.4-5.9,2.8-8.8,4.1c-1.5,0.7-2.9,1.3-4.3,2c-1.4,0.7-2.8,1.5-4.2,2.2c-2.7,1.4-5.4,2.8-8,4.2
						l-1.9,1c-0.5,0.3-1,0.7-1.6,1c-1,0.7-2.2,1.3-3,2.3c-3.6,3.4-5.8,8-6.2,12.5c-0.3,1.1-0.1,2.2-0.1,3.3c0,1.1,0,2.2,0.3,3.1
						c0.2,1,0.5,2,0.7,2.9c0.4,0.9,0.9,1.9,1.3,2.8c1.6,3.4,4,6,6.4,7.8c2.5,1.7,4.8,2.8,6.8,3.3c2,0.6,3.5,0.8,4.6,0.9
						C995.3,390.8,995.9,390.8,995.9,390.8L995.9,390.8z"/>
				</g>
			</g>
			<g>
				<g>
					<path fill="#0071BC" d="M1006.5,558.5c-8.5,0-16.6-4.7-20.7-12.8c-5.7-11.4-1.1-25.3,10.3-31c47.7-23.8,122.9-34.7,187.3-27.2
						c12.7,1.5,21.7,13,20.3,25.7c-1.5,12.7-13,21.8-25.7,20.3c-55.3-6.5-121.6,2.8-161.2,22.6
						C1013.5,557.7,1010,558.5,1006.5,558.5z"/>
					<path fill="#0071BC" d="M1006.5,559c0,0-0.5,0-1.4-0.1c-0.5,0-1.1-0.1-1.8-0.1c-0.7-0.1-1.5-0.3-2.5-0.5c-3.6-0.9-9-3-13.6-8.6
						c-0.6-0.6-1-1.5-1.6-2.3l-0.8-1.2l-0.6-1.4c-0.4-0.9-0.8-1.8-1.2-2.7c-0.4-0.9-0.5-2.1-0.8-3.1c-0.7-2.2-0.4-4.5-0.5-6.9
						c0.4-2.4,0.6-4.9,1.7-7.3c1.9-4.8,5.4-9.7,10.8-12.8c4.9-2.7,9.6-5.4,15.3-7.8c11-5,23.3-9.1,36.6-12.2
						c13.3-3.1,27.6-4.9,42.3-6.1c14.8-1.2,30-1.9,45.5-2.3c15.5-0.3,31.2-0.2,47,0.8l1.5,0.1l0.7,0l0.4,0c0.2,0-0.2,0,0.5,0.1
						l0.2,0l2.9,0.5l1.4,0.3c0.5,0.2,1.1,0.4,1.6,0.6l3.3,1.3c3.9,2.2,7.6,5,10,8.9c1.4,1.8,2.1,4,3.1,6.1c0.4,1.1,0.6,2.2,0.8,3.3
						c0.2,1.1,0.6,2.2,0.5,3.4l0,3.5l0,0.9l0,0.2c0,0-0.2,1-0.1,0.6l-0.1,0.4l-0.3,1.4c-0.2,1-0.3,1.9-0.6,2.9
						c-0.4,1.2-0.9,2.3-1.4,3.5c-3.8,8.9-12.3,14.5-21.4,15.9c-1.1,0.3-2.3,0.2-3.4,0.2l-3.3,0c-1.9-0.1-3.7-0.2-5.6-0.4
						c-3.7-0.2-7.4-0.5-11.1-0.7c-1.8-0.1-3.7-0.3-5.5-0.3c-1.8,0-3.5,0-5.3,0c-3.5,0-7-0.1-10.4-0.1c-1.7,0-3.4-0.1-5.1,0
						c-1.7,0.1-3.4,0.2-5.1,0.3c-3.4,0.1-6.8,0.2-10.1,0.3c-6.6,0-13,1-19.3,1.4c-3.1,0.3-6.2,0.4-9.2,0.8c-3,0.4-5.9,0.7-8.8,1.1
						c-11.6,1.1-22,3.2-31.4,4.8c-4.6,1.1-8.9,2.2-12.9,3.3c-2,0.6-3.9,0.9-5.7,1.6c-1.8,0.7-3.4,1.3-5,2c-3.2,1.2-6,2.4-8.5,3.3
						c-2.5,1.1-4.6,1.9-6.5,2.3c-1.8,0.4-3.3,0.6-4.2,0.6C1007,559,1006.5,559,1006.5,559L1006.5,559z M1006.5,558
						c0,0,0.5,0,1.4-0.1c0.9,0,2.3-0.2,4-0.6c1.7-0.4,3.8-1.4,6.1-2.5c2.4-1.1,5.2-2.5,8.3-3.9c6.1-3.2,14.1-5.8,23-9.6
						c4.6-1.6,9.5-3,14.7-4.7c5.2-1.8,10.7-3.1,16.5-4.3c2.9-0.6,5.9-1.3,8.9-2c3-0.6,6.2-0.9,9.4-1.4c3.2-0.5,6.4-0.9,9.7-1.3
						c3.3-0.5,6.6-0.7,10.1-0.9c6.8-0.3,13.8-1.1,21-0.9c3.6,0.1,7.3,0.1,11,0.2c3.7,0,7.4,0.2,11.1,0.6c3.7,0.3,7.3,0.7,11.1,1.1
						c1.9,0.2,3.7,0.4,5.6,0.5l2.4,0.1c0.7,0,1.5,0.2,2.2,0c1.4-0.3,3-0.3,4.3-1c0.7-0.3,1.4-0.4,2.1-0.8l1.9-1.2
						c0.7-0.3,1.2-0.9,1.8-1.4c0.5-0.5,1.2-1,1.7-1.6l1.4-1.9l0.7-0.9l0.4-0.9c0.3-0.6,0.6-1.2,1-1.8c0.3-0.8,0.5-1.8,0.7-2.8
						l0.3-1.4l0.1-0.4c0.1-0.4-0.1,0.4,0,0.3l0-0.1l0-0.6l0.1-2.4c0.2-0.8-0.1-1.6-0.2-2.4c-0.2-0.8-0.1-1.6-0.4-2.4
						c-0.6-1.5-0.9-3.1-1.9-4.4c-1.4-3-4-5.2-6.7-7.1c-0.7-0.3-1.4-0.7-2-1.1c-0.4-0.2-0.7-0.4-1.1-0.6l-1.4-0.4l-2.8-0.8l-0.2,0
						c0.5,0.1,0,0,0.1,0l-0.4-0.1l-0.7-0.1l-1.4-0.2c-15.4-2.4-31-3.6-46.3-3.3c-15.4,0.3-30.4,1.9-44.8,4.6
						c-14.4,2.7-28,6.1-40.8,9.5c-12.8,3.4-24.8,7.3-35.6,11c-5.3,1.8-10.8,4-15.5,5.9c-4.3,1.8-7.6,5.2-9.7,8.9
						c-1.2,1.8-1.6,3.9-2.3,5.9c-0.1,2-0.6,4.1-0.2,5.9c0.1,0.9,0.1,1.9,0.4,2.8c0.3,0.9,0.6,1.9,0.9,2.8l0.4,1.2l0.6,1.1
						c0.4,0.7,0.8,1.5,1.3,2.2c1.8,2.8,4.2,4.7,6.3,6.1c2.2,1.3,4.3,2.1,6,2.5c0.9,0.2,1.6,0.3,2.3,0.5c0.7,0.1,1.3,0.1,1.8,0.1
						C1006.1,557.9,1006.6,558,1006.5,558L1006.5,558z"/>
				</g>
			</g>
			<g>
				<g>
					<path fill="#0071BC" d="M1013.6,715c-7,0-14-3.2-18.5-9.2c-7.7-10.2-5.6-24.7,4.6-32.4c54.3-40.7,131.9-23.6,162.7-14.3
						c12.2,3.7,19.2,16.6,15.5,28.8c-3.7,12.2-16.6,19.2-28.8,15.5c-18.8-5.7-83.2-21.8-121.7,7C1023.3,713.4,1018.5,715,1013.6,715
						z"/>
					<path fill="#0071BC" d="M1013.6,715.5c0,0-0.4,0-1.3-0.1c-0.8,0-2.1-0.2-3.7-0.5c-3.2-0.6-8-2.3-12.5-6.7
						c-0.5-0.6-1.1-1.2-1.6-1.8c-0.6-0.8-0.9-1.4-1.4-2.1c-0.5-0.7-1-1.4-1.4-2.1c-0.4-0.9-0.8-1.7-1.1-2.7
						c-1.6-3.6-2.1-7.9-1.7-12.5c0.4-4.6,2.6-9.3,5.9-13.5c0.9-1,1.9-1.9,2.9-2.9c1-0.8,2-1.6,3.1-2.4c2-1.5,4-3,6.1-4.5
						c2-1.5,4.6-2.8,7-4.3c2.5-1.3,5-3,7.7-3.9c2.6-1.1,5.4-2.2,8.1-3.3c2.8-1.1,5.7-1.8,8.6-2.7c11.8-3.2,24.6-4.7,37.7-4.5
						c13.1,0.1,26.5,1,40,2.6c13.5,1.6,27.2,3.8,40.8,6.7l5.1,1.2l1.3,0.3l0.3,0.1l0.6,0.2l0.6,0.2l2.4,0.9c0.4,0.2,0.8,0.3,1.2,0.5
						l1.4,0.8l2.7,1.7c1.7,1.2,3,2.6,4.5,4c5.2,6.1,7.6,14.6,6,22.6l-0.3,1.5l-0.1,0.7c0.1-0.3-0.2,0.7-0.2,0.6l-0.1,0.1l-0.1,0.3
						l-0.9,2.4c-0.4,1.4-1.8,3.5-3,5.3c-0.6,1-1.3,1.7-2,2.4l-2.1,2.2c-1.5,1.3-3.3,2.4-4.9,3.5c-1.8,0.8-3.7,1.8-5.6,2.3
						c-2,0.4-3.9,1.1-5.9,1.1c-2,0-4,0.3-6-0.2c-2-0.4-4.1-0.7-5.5-1.1c-12.2-3.3-24.1-5.7-35.6-7.4c-11.4-1.6-22.3-2.3-32.3-2.4
						c-10,0-19.2,1-27.2,2.7c-3.9,1.1-7.7,2-10.9,3.5c-1.7,0.7-3.2,1.3-4.7,2c-1.4,0.8-2.7,1.6-4,2.4c-2.5,1.5-5,2.9-7,4.1
						c-1.1,0.5-2.2,0.9-3.1,1.2c-1,0.3-1.9,0.5-2.7,0.7c-1.6,0.5-2.9,0.4-3.7,0.5C1014.1,715.4,1013.6,715.5,1013.6,715.5
						L1013.6,715.5z M1013.6,714.4c0,0,0.4,0,1.2-0.1c0.8-0.1,2,0,3.5-0.5c0.8-0.2,1.6-0.4,2.5-0.7c0.9-0.4,1.8-0.8,2.8-1.3
						c2-1.3,4.1-2.8,6.6-4.6c1.2-0.9,2.6-1.8,3.9-2.8c1.5-0.8,3-1.7,4.6-2.6c3.2-2,6.9-3.4,10.8-5.2c8-3.1,17.5-5.8,28.1-7
						c10.6-1.3,22.2-1,34.2,0.4c3,0.3,6,0.8,9.1,1.2c3.1,0.6,6.1,1.1,9.2,1.8c6.2,1.3,12.6,2.9,18.8,4.8c1.7,0.6,2.8,0.7,4,1
						c1.2,0.4,2.5,0.1,3.7,0.3c1.3,0.1,2.5-0.4,3.8-0.5c1.2-0.3,2.4-0.9,3.6-1.3c4.7-2.5,8-6.5,9.5-12.2c1.3-5.2,0.2-11.2-3.1-15.8
						c-0.9-1-1.9-2.2-2.9-3.2l-1.6-1.2l-0.8-0.7c-0.3-0.2-0.8-0.4-1.1-0.6l-2.3-1.1l-0.6-0.3l-0.1-0.1c0.1,0-0.4-0.2,0.2,0l-0.3-0.1
						l-1.2-0.4l-4.8-1.7c-13-4.2-26.3-7.5-39.7-9.1c-13.4-1.7-26.7-1.7-39.3-0.3c-12.7,1.3-24.6,4.4-35.5,7.7c-2.7,1-5.5,1.6-8,2.6
						c-2.6,1.1-5.1,2.1-7.6,3.1c-2.6,0.9-4.7,2.2-7.1,3.3c-2.3,1.2-4.6,1.9-6.8,3.3c-2.2,1.3-4.4,2.6-6.5,3.9c-1,0.6-2,1.2-3,1.7
						c-0.8,0.6-1.6,1.3-2.4,1.9c-2.9,2.7-5.3,6.1-6.2,9.8c-2.2,7.4,0.6,14.7,4.3,19.1c3.8,4.4,8.4,6.2,11.4,6.9
						c1.5,0.3,2.7,0.5,3.6,0.5C1013.2,714.4,1013.7,714.4,1013.6,714.4L1013.6,714.4z"/>
				</g>
			</g>
			<g>
				<g>
					<path fill="#0071BC" d="M981.6,867.9c-7.3,0-14.5-3.4-19-9.9c-7.3-10.5-4.8-24.9,5.7-32.2c37.4-26.1,84.2-26.9,143.1-2.4
						c11.8,4.9,17.4,18.4,12.4,30.2c-4.9,11.8-18.4,17.4-30.2,12.5c-43.7-18.2-75.1-19-98.8-2.4
						C990.8,866.5,986.2,867.9,981.6,867.9z"/>
					<path fill="#0071BC" d="M981.6,868.4c0,0-0.4,0-1.1-0.1c-0.7,0-1.9-0.1-3.4-0.4c-2.9-0.6-7.3-1.8-11.7-5.4
						c-0.5-0.5-1.1-1-1.6-1.5c-0.5-0.6-1-1.1-1.5-1.7c-1.2-1.4-1.8-2.6-2.8-4c-0.9-1.4-1.4-3.3-2.2-5.1c-0.4-1.9-0.9-3.8-1-5.9
						c0-2.1-0.1-4.3,0.5-6.5c0.3-2.3,1.3-4.4,2.2-6.6c0.5-1.1,1.3-2.1,2-3.1l1.1-1.6c0.4-0.5,0.9-0.9,1.3-1.4c1-0.9,1.8-1.8,3-2.8
						c0.9-0.7,1.9-1.3,2.8-2c3.6-2.8,8.2-5.5,12.9-7.9c2.4-1.1,4.8-2.3,7.3-3.2c2.6-0.9,5.1-1.9,7.8-2.7c10.7-3.2,22.5-4.2,34.4-3.7
						c11.9,0.6,24,2.4,36.1,4.9c12.1,2.6,24.2,5.8,36.2,9.6l4.5,1.5l2.2,0.7l1.1,0.4l0.6,0.2l0.3,0.1c0.2,0.1-0.2-0.1,0.4,0.2
						l0.1,0.1c1.4,0.7,2.8,1.3,4.2,2c1.5,1.1,3.2,2.2,4.6,3.5c5.3,5,8.3,12.3,8.2,19.7c-0.2,1.8-0.1,3.7-0.6,5.5l-0.7,2.6l-0.4,1.3
						l-0.1,0.3l-0.3,0.7l-0.3,0.5l-1,2c-0.4,0.7-0.6,1.3-1.3,2.1c-1.2,1.5-2.4,3.3-3.8,4.5c-5.3,5.1-12.5,7.9-19.7,7.9
						c-1.8-0.2-3.6-0.2-5.4-0.5c-1.7-0.4-3.5-1-5-1.5c-2.7-1.1-5.3-2.1-7.9-3.1c-5.1-1.8-10.1-3.6-15.1-5.2
						c-9.9-3.1-19.4-5.2-28.3-6.4c-8.9-1.2-17.1-1.2-24.4,0.1c-7.2,1.2-13.4,3.7-18,6.4c-1.2,0.7-2.2,1.3-3.4,1.9
						c-1.1,0.5-2,1.2-3.1,1.5c-1,0.4-2,0.7-2.9,1.1c-0.9,0.2-1.7,0.4-2.4,0.5c-1.4,0.4-2.6,0.3-3.4,0.4
						C982,868.4,981.6,868.4,981.6,868.4L981.6,868.4z M981.6,867.3c0,0,0.4,0,1.1-0.1c0.7-0.1,1.8,0,3.2-0.4
						c0.7-0.2,1.5-0.4,2.3-0.6c0.8-0.3,1.7-0.7,2.6-1.1c0.9-0.4,1.9-1.1,2.9-1.7c0.9-0.6,2-1.4,3.2-2.2c4.5-3.1,10.4-6.6,17.8-9.2
						c7.4-2.6,16.4-4.3,26.1-4.3c9.8-0.1,20.2,1.8,30.8,4.7c2.6,0.8,5.3,1.6,8,2.4c2.7,1,5.4,1.9,8.1,2.9c2.6,1,5.2,2.1,7.9,3.2
						c1.3,0.4,2.2,0.6,3.2,1c1.1,0.3,2.2,0.3,3.3,0.5c4.5,0.2,9.1-1.4,12.6-4.5c0.9-0.7,1.4-1.5,2.2-2.2c0.4-0.2,0.8-1.1,1.1-1.7
						l1.1-2l0.3-0.5l0.1-0.1c-0.1,0.2,0.3-0.5-0.1,0.3l0.1-0.2l0.3-0.9l0.6-1.7c0.5-1.1,0.4-2.4,0.6-3.6c0.4-4.9-1.2-10-4.6-14
						c-0.8-0.9-1.7-1.6-2.5-2.5c-1.2-0.8-2.6-1.6-3.9-2.5l-8.1-3.7c-11.2-5-22.9-9.3-34.8-11.8c-11.9-2.6-23.9-3.5-35.3-2.5
						c-11.4,0.9-22.1,3.5-31.8,6.8c-2.4,0.9-4.8,1.8-7.1,2.6c-2.3,0.9-4.5,2-6.7,3c-4.3,2.1-8.3,4-12.4,6.5c-1,0.6-2,1.2-3,1.7
						c-0.7,0.5-1.5,1.1-2.2,1.6c-0.4,0.3-0.8,0.5-1.1,0.8l-0.9,1c-0.6,0.7-1.3,1.3-1.8,2.1c-0.9,1.6-2.1,3-2.5,4.8
						c-0.8,1.6-1,3.4-1.3,5.1c-0.2,1.7,0,3.4,0,5c0.4,1.5,0.5,3,1.2,4.5c0.7,1.4,1.4,3.1,2.1,4.1c0.4,0.6,0.8,1.1,1.2,1.7
						c0.5,0.5,0.9,1,1.4,1.5c3.7,3.8,7.9,5.2,10.6,5.7c1.4,0.3,2.5,0.4,3.2,0.4C981.3,867.3,981.7,867.3,981.6,867.3L981.6,867.3z"
						/>
				</g>
			</g>
			<g>
				<g>
					<path fill="#0071BC" d="M1003,1013.7c-5.9,0-11.8-2.3-16.3-6.8c-8.6-8.5-36-31.7-59.3-36.3c-12.5-2.5-20.6-14.7-18.1-27.2
						c2.5-12.5,14.7-20.6,27.2-18.1c41.2,8.2,78.8,44.8,82.9,49c9,9,9,23.7,0,32.7C1014.8,1011.4,1008.9,1013.7,1003,1013.7z"/>
					<path fill="#0071BC" d="M1002.9,1014.2c0,0-1.2-0.1-3.5-0.3c-2.3-0.3-5.7-1.2-9.7-3.3c-3.8-2.5-7.6-6-12.5-9.2
						c-4.9-3.3-10.6-6.8-16.8-10.5c-6.2-3.6-12.8-7.6-20-11.1c-3.6-1.8-7.3-3.5-11.2-4.8c-1.1-0.4-2.2-0.7-3.3-1.1l-3.1-1.3
						c-1-0.3-2.3-1.2-3.4-1.9c-1.2-0.7-2.3-1.4-3.2-2.4c-4-3.3-6.6-8-8-12.8c-0.8-2.4-0.9-5-1.1-7.5l0.4-3.8l0.1-1
						c0.1-0.6,0.2-0.7,0.3-1l0.5-1.7c2.8-10,12.4-17.7,23.5-18.5l4.1,0.1c0.4,0,0.6,0,1.2,0.1l0.9,0.2l1.8,0.3
						c2.4,0.4,4.8,0.7,7.3,1.4c2.4,0.7,5,1.2,7.4,2.1c2.4,0.8,4.7,1.6,7,2.5c9.3,3.7,17.9,8.3,25.9,13.2c4,2.4,7.8,5.1,11.4,7.8
						c3.7,2.6,7.1,5.4,10.3,8.3c3.2,2.8,6.4,5.6,9.2,8.5c1.4,1.4,2.8,2.9,4.2,4.4l0.1,0.1c0-0.1,0.7,0.7,0.4,0.4l0.1,0.1l0.2,0.3
						l0.4,0.6l0.8,1.2c0.5,0.8,1.1,1.4,1.6,2.6c1,2.1,2.2,4.3,2.4,6.3c0.2,1,0.4,2,0.6,3c0.1,1,0.1,2,0.1,2.9c0,1,0.1,1.9-0.1,2.8
						c-0.2,0.9-0.3,1.8-0.5,2.7c-0.2,1.8-1,3.3-1.6,4.9c-0.5,1.6-1.5,2.8-2.3,4.1c-0.4,0.6-0.8,1.3-1.2,1.8c-0.5,0.5-1,1-1.5,1.5
						c-0.5,0.5-0.9,1-1.4,1.4l-0.3,0.3c-0.3,0.3-0.3,0.2-0.5,0.4l-0.7,0.5c-1,0.7-1.9,1.4-2.7,2c-4.1,2.1-7.4,3-9.8,3.3
						C1004.2,1014.1,1003,1014.2,1002.9,1014.2L1002.9,1014.2z M1003,1013.1c0,0,1.2-0.1,3.4-0.4c2.2-0.3,5.4-1.4,8.7-3.7
						c0.8-0.7,1.6-1.5,2.5-2.3l0.6-0.6c0.1-0.1,0.3-0.3,0.2-0.2l0.2-0.4c0.3-0.5,0.7-1,1-1.5c0.7-1,1.4-2,1.8-3.3
						c0.4-1.2,1-2.4,1.2-3.8c0.2-1.3,0.6-2.7,0.4-4.1c0-0.7,0-1.4,0-2.1c0-0.7-0.3-1.4-0.4-2.1c-0.2-0.7-0.3-1.4-0.5-2.1
						c-0.3-0.7-0.6-1.3-0.9-2c-0.5-1.5-1.4-2.3-2-3.5c-0.2-0.5-1.1-1.3-1.6-1.9l-1.6-1.7c-1.4-1.2-2.8-2.5-4.3-3.7
						c-3-2.5-6-5.1-9.2-7.6c-3.3-2.5-6.6-5.1-10-7.7c-3.4-2.6-7.1-5.1-10.7-7.6c-7.4-5-15.2-9.9-23.7-13.9c-4.2-2-8.5-3.9-12.8-5.5
						c-2.1-0.9-4.5-1.6-6.8-2.4l-1.7-0.6l-0.9-0.3l-0.7-0.1l-3.2-0.6c-4.3-0.3-8.7,0.8-12.5,3.3c-0.9,0.7-1.8,1.3-2.7,2.1l-2.2,2.5
						c-0.7,0.8-1.1,1.9-1.7,2.8c-0.6,0.9-1,2-1.3,3.2l-0.5,1.7c-0.1,0.2-0.2,0.7-0.2,0.7l-0.1,0.8l-0.3,3.3c0.3,2.2,0.4,4.4,1.3,6.4
						c1.5,4,4.3,7.6,7.8,9.6c0.8,0.7,1.7,1,2.5,1.3c0.9,0.3,1.4,0.8,2.7,1l3.3,0.7l0.2,0l0.1,0c0.1,0-0.6-0.2-0.2-0.1l0.4,0.1
						l0.9,0.1l1.8,0.3c2.4,0.4,4.5,1.1,6.8,1.7c2.1,0.8,4.3,1.5,6.3,2.3c8.1,3.5,15.1,7.8,20.9,12.6c5.9,4.6,10.8,9.5,15,13.9
						c2.1,2.2,4,4.3,5.8,6.2c1.7,2.1,3.3,3.5,4.9,4.9c3.5,2.3,6.5,3.3,8.8,3.7C1001.8,1013,1003,1013.1,1003,1013.1L1003,1013.1z"/>
				</g>
			</g>
			<g>
				<g>
					<path fill="#0071BC" d="M885.6,1131c-9.1,0-17.6-5.3-21.3-14.2c-0.1-0.2-13.7-31.2-39.7-35.9c-12.6-2.3-20.9-14.3-18.6-26.9
						c2.3-12.6,14.3-20.9,26.9-18.6c50.9,9.3,73.2,61.4,74.1,63.6c4.9,11.8-0.7,25.3-12.4,30.2C891.6,1130.4,888.6,1131,885.6,1131z
						"/>
					<path fill="#0071BC" d="M885.6,1131.5c0,0-1.2-0.1-3.4-0.2c-2.2-0.5-5.6-0.9-9.3-3.1c-1.9-1.1-3.8-2.4-5.8-4.3
						c-0.9-0.9-1.8-2-2.7-3.1c-0.8-1.2-1.6-2.4-2.4-3.7c-3-4.7-7-9.7-11.5-14.6c-4.7-4.7-9.8-9.8-16.2-13.4l-2.4-1.4l-2.5-1.1
						c-1.7-0.9-3.5-1.3-5.3-2l-0.1,0c0.1,0-0.8-0.2-0.5-0.1l-0.2-0.1l-0.4-0.1l-0.8-0.3l-1.5-0.6l-1.5-0.6l-1.7-1
						c-1.1-0.7-2.3-1.3-3.3-2.1l-2.7-2.6c-3.3-3.7-5.8-8.1-6.8-13c-0.4-1.2-0.3-2.4-0.4-3.7l-0.2-1.8l0.2-1.8
						c0.2-1.3,0.1-2.3,0.5-3.8c0.4-1.1,0.7-2.2,1-3.3c1.8-4.7,4.8-9,8.8-12.1c4.1-3.1,9.1-5,14.4-5.4l4,0.1l0.5,0c0.2,0,0,0,0.4,0
						l0.2,0l0.9,0.1l1.7,0.3c2.3,0.4,4.6,0.7,7,1.2c2.4,0.7,4.8,1.4,7.2,2.2c2.5,0.7,4.6,1.9,6.8,2.8c8.9,4.1,17,9.4,24,15.6
						c3.5,3.1,6.7,6.3,9.6,9.7c3,3.3,5.6,6.8,7.9,10.3c4.8,7,8.6,14,11.1,21l0.5,1.3l0.4,1.1l0.1,0.6c0.2,0.9,0.3,1.7,0.5,2.5
						l0.2,1.2l0.1,1.6c0,1,0,2,0,3c0,2-0.6,3.6-0.9,5.3c-0.4,1.7-1.2,3.2-1.8,4.6c-2.9,5.7-7.3,9.1-10.9,11.3
						c-1,0.5-1.9,0.9-2.8,1.3l-0.6,0.3c-0.1,0.1-0.1,0.1-0.4,0.2l-0.3,0.1c-0.4,0.1-0.8,0.2-1.2,0.3c-1.6,0.4-2.8,0.9-4,0.9
						C886.8,1131.4,885.6,1131.5,885.6,1131.5L885.6,1131.5z M885.6,1130.5c0,0,1.1-0.1,3.2-0.4c1.1,0,2.3-0.6,3.9-1.1
						c0.4-0.1,0.8-0.3,1.2-0.4l0.3-0.1c0,0,0.1-0.1,0.2-0.1l0.6-0.4c0.8-0.5,1.5-1,2.4-1.5c3.2-2.3,6.4-6.2,7.6-11.3
						c0.2-1.3,0.6-2.6,0.6-3.9c-0.1-1.3,0.1-2.8-0.3-4c-0.1-0.6-0.3-1.2-0.4-1.8l-0.2-0.9l-0.5-1.2c-0.3-0.8-0.7-1.6-1-2.4l-0.2-0.6
						l0-0.1c0.1,0.2-0.2-0.5,0.1,0.3l-0.1-0.1l-0.1-0.3l-0.6-1.1c-3.4-5.8-7.4-12.1-12-18.4c-1.1-1.6-2.4-3.1-3.7-4.6
						c-1.2-1.6-2.5-3.2-3.8-4.7c-2.6-3.1-5.6-6-8.5-9c-6-5.9-13-11.1-20.7-15.3c-3.9-2.3-7.8-3.8-11.9-5.6c-2.1-0.8-4.5-1.5-6.7-2.2
						l-1.7-0.5l-0.8-0.3l-0.2-0.1c0.3,0,0,0,0,0l-0.4-0.1l-3.1-0.5c-4.1-0.3-8.4,0.7-12.2,2.9c-3.7,2.4-6.4,5.9-8,9.8
						c-0.3,1.1-0.7,2.2-1,3.3c-0.2,0.8-0.2,2.1-0.2,3.1l-0.1,1.6l0.2,1.6c0.2,1,0.2,2.1,0.6,3.1c1.1,4.1,3.9,7.4,6.9,9.8l2.4,1.6
						c0.8,0.5,1.6,0.7,2.4,1l1.1,0.5l1.6,0.3l2.8,0.6c4.6,0.7,9.2,1.9,13.1,4c8,4,14,10.1,18.3,16.2c4.4,6.1,7.1,12.3,9.2,17.9
						c1.4,5.4,4.5,9.1,7.8,11.5c3.2,2.4,6.5,3,8.5,3.5C884.5,1130.4,885.7,1130.5,885.6,1130.5L885.6,1130.5z"/>
				</g>
			</g>
			<g>
				<g>
					<path fill="#0071BC" d="M743.3,1230.6c-9.9,0-19-6.4-22.1-16.3c-3.3-10.7-16.6-41.5-37-55.1c-10.6-7.1-13.5-21.4-6.4-32.1
						c7.1-10.6,21.4-13.5,32.1-6.4c37.8,25.2,53.8,74.5,55.5,80c3.8,12.2-3.1,25.1-15.3,28.9
						C747.9,1230.3,745.6,1230.6,743.3,1230.6z"/>
					<path fill="#0071BC" d="M743.3,1231.1c0,0-1.2-0.1-3.5-0.3c-2.3-0.5-5.8-1-9.6-3.4c-3.8-2.2-8.1-5.9-10.9-11.9
						c-2.5-5.4-5.6-11.1-9.2-17.3c-3.7-6.1-7.6-12.7-12.2-19.2c-2.3-3.3-4.7-6.6-7.5-9.7c-1.3-1.6-2.8-3.1-4.3-4.6
						c-0.8-0.7-1.6-1.4-2.4-2.1l-0.6-0.5l-0.3-0.3l-0.2-0.1l-0.1-0.1c0,0-0.5-0.4-0.3-0.2l-1.2-1.2c-0.8-0.9-1.7-1.5-2.5-2.5
						l-2.4-3.3c-0.8-1.1-1.1-2.3-1.7-3.4c-0.6-1.1-1-2.3-1.2-3.6c-0.8-2.4-0.8-5-1-7.5l0.4-3.8c0.1-1.3,0.7-2.5,0.9-3.7
						c0.2-0.6,0.3-1.2,0.6-1.8l0.9-1.7c0.7-1.1,1-2.3,2-3.4l2.2-2.9c0.9-0.9,2-1.8,3-2.7c4.2-3.3,9.3-5.3,14.8-5.8
						c5.5-0.3,11.1,1.3,15.9,4.2l6.1,3.9c2,1.6,4,3.2,6,4.8c7.6,6.5,14.2,13.8,19.9,21.4c2.9,3.7,5.4,7.7,7.8,11.5
						c1.1,2,2.3,3.9,3.4,5.8c1,2,2,3.9,2.9,5.8c3.8,7.7,6.8,15.3,8.7,22.6c0.5,1.8,1,3.6,1.3,5.4l0.1,0.5l0,0.2l0,0.3l0.1,0.7
						l0.1,1.3c0.1,0.9,0.2,1.6,0.2,2.6c-0.2,2-0.2,4.1-0.6,5.8c-0.6,1.7-0.9,3.4-1.6,4.8c-0.8,1.4-1.4,2.9-2.3,4.1
						c-0.9,1.2-1.8,2.3-2.7,3.4c-1,0.9-2,1.7-3,2.6c-0.9,0.8-2,1.3-2.9,1.9c-3.8,2.2-7.3,2.9-9.5,3.3
						C744.6,1231,743.3,1231.1,743.3,1231.1L743.3,1231.1z M743.3,1230.1c0,0,1.2-0.1,3.4-0.3c2.2-0.5,5.4-1.3,8.7-3.9
						c3.4-2.2,6.5-6.5,7.6-11.8c0.4-1.3,0.3-2.7,0.4-4.1c0-1.4-0.3-2.6-0.4-3.9c-0.1-0.7-0.5-1.6-0.7-2.4l-0.4-1.2l-0.2-0.6
						l-0.1-0.3l0-0.2c0.2,0.7,0,0.2,0.1,0.3l0-0.1c-0.7-1.5-1.4-3.1-2.1-4.7c-3-6.4-6.3-13.5-10.1-20.6c-2-3.6-4-7.2-6.2-10.9
						c-2.2-3.6-4.5-7.3-7-10.9c-5-7.3-10.7-14.4-17.2-20.8c-1.6-1.5-3.3-3.1-4.9-4.6l-5.6-4.6c-3.2-2.5-7-4.4-11.3-4.8
						c-4.3-0.3-8.8,0.9-12.4,3.2c-0.8,0.7-1.7,1.2-2.6,1.9l-2.4,2.7c-0.7,0.6-1.1,1.9-1.7,2.8l-0.8,1.5c-0.2,0.5-0.3,1.1-0.5,1.6
						c-1.5,4.2-1.4,8.9,0.2,12.9c0.3,1,0.7,2,1.3,2.9c0.6,0.9,1,1.9,1.7,2.6l2,2.1c0.7,0.7,1.8,1.3,2.7,2l1.4,1
						c0.2,0.2-0.2-0.2-0.1-0.1l0.1,0.1l0.2,0.1l0.4,0.2l0.8,0.5c1,0.6,2.1,1.2,3,1.9c1.9,1.4,3.9,2.8,5.5,4.3c3.6,3,6.6,6.4,9.3,9.8
						c5.3,6.9,9.4,14,12.3,21c2.9,6.9,4.8,13.7,6.1,19.5c1.1,5.3,4.3,9.5,7.6,11.9c1.6,1.3,3.3,2,4.8,2.7c1.5,0.5,2.8,0.8,3.9,1.1
						C742.2,1230,743.4,1230.1,743.3,1230.1L743.3,1230.1z"/>
				</g>
			</g>
			<g>
				<g>
					<path fill="#0071BC" d="M590.5,1294.6c-1.5,0-3-0.1-4.6-0.5c-12.5-2.5-20.6-14.7-18.1-27.2c2.5-12.8,3.5-42.3-9-51.7
						c-10.2-7.7-12.3-22.1-4.6-32.4c7.7-10.2,22.1-12.3,32.4-4.6c39,29.2,28,90.8,26.6,97.7C610.9,1287,601.3,1294.6,590.5,1294.6z"
						/>
					<path fill="#0071BC" d="M590.4,1295.1c0,0-1.2-0.1-3.4-0.3c-0.3,0-0.6-0.1-0.9-0.1l-0.2,0c-0.3-0.1-0.2-0.1-0.3-0.1l-0.5-0.1
						c-0.7-0.2-1.4-0.4-2.2-0.6c-1.6-0.3-3.3-1.3-5.3-2.2c-3.7-2.2-8-5.7-10.9-11.5c-1.4-2.9-2.4-6.3-2.5-10c0-4,0.3-7,0.4-10.5
						c0.1-6.9,0.2-14.4-0.6-22.1c-0.4-3.8-1-7.7-2.1-11.4c-0.6-1.8-1.3-3.6-2.2-5.2c-0.5-0.8-0.9-1.6-1.6-2.2l-0.9-1l-0.1-0.1
						c0.2,0.1-0.3-0.3-0.3-0.3l-0.1-0.2l-0.3-0.3l-0.6-0.6c-0.8-0.9-1.5-1.6-2.3-2.5l-2.1-3.3c-0.8-1.1-1-2.3-1.6-3.4
						c-0.5-1.1-1-2.3-1.1-3.6c-0.2-1.2-0.6-2.4-0.6-3.7l-0.1-3.7c0.3-2.5,0.5-5,1.5-7.3c0.6-2.5,2.1-4.5,3.4-6.8
						c1.8-2.1,2.9-3.7,5.3-5.4c4.2-3.3,9.2-5.4,14.6-5.6c5.3-0.3,10.9,1,15.7,4l0.5,0.3l0.6,0.4l0.7,0.5l1.4,1.1l2.8,2.2
						c1.9,1.3,3.7,3.4,5.5,5.3c7,7.6,12,16.2,15.2,25.3c1.6,4.5,2.9,9,3.7,13.4c1,4.4,1.4,8.8,1.7,13.1c0.6,8.5,0.2,16.6-0.9,23.9
						c-0.5,3.7-1.4,7.1-2.1,10.4c-0.4,1.6-0.8,3.2-1.3,4.8l-0.4,1.4l-0.4,1.1c-0.3,0.7-0.6,1.4-0.9,2.1c-2.8,6.1-7.2,9.6-11,11.7
						c-0.9,0.6-1.9,1-2.8,1.3c-0.9,0.3-1.7,0.7-2.5,0.9c-1.6,0.3-3,0.8-4.1,0.9C591.7,1295,590.5,1295.1,590.4,1295.1L590.4,1295.1z
						 M590.5,1294.1c0,0,1.2-0.1,3.3-0.3c1.1-0.1,2.4-0.6,3.9-1c0.8-0.2,1.5-0.7,2.3-1.1c0.8-0.4,1.6-0.9,2.4-1.5
						c3.3-2.2,6.5-6.4,7.6-11.4c1.1-5.3,0.9-12,0.9-19c-0.2-7-0.2-14.5-1.1-22.3c-0.1-2-0.6-3.9-0.8-5.9c-0.2-2-0.6-4-1-6
						c-0.7-4-1.9-8-3-12.1c-2.4-8-6.5-15.9-11.8-22.6c-1.4-1.6-2.4-3.4-4.3-5l-2.6-2.5l-1.3-1.2l-0.6-0.6l-0.2-0.2l-0.1-0.1
						c-0.1-0.1,0.4,0.3,0.1,0.1l-0.3-0.2c-3-2.6-7-4.2-11.1-4.6c-4.2-0.5-8.7,0.8-12.2,3c-1.7,0.8-3.6,3-5,4.4
						c-1.1,1.9-2.5,3.7-3.1,5.8c-1.4,4.1-1.7,8.7-0.2,12.7c0.2,1,0.7,2,1.2,2.9c0.5,0.9,0.9,1.9,1.6,2.6l1.8,2.2
						c0.8,0.7,1.7,1.4,2.6,2.1l2.7,2.1c1.1,0.8,1.9,1.8,2.8,2.7c1.7,1.9,3,4.1,4,6.2c2.1,4.3,3.2,8.8,4,13.1
						c1.3,8.6,1.1,16.8-0.2,24.1c-0.5,3.7-1.8,7.5-2.2,10c-0.5,2.8-0.4,5.6,0.2,8.2c1.2,5.2,4.5,9.2,7.6,11.6c1.7,1,3.1,2.1,4.8,2.5
						c0.8,0.3,1.5,0.5,2.1,0.7l0.5,0.2c0,0,0.3,0.1,0.1,0.1l0.2,0c0.3,0,0.6,0.1,0.9,0.1C589.3,1294,590.5,1294.1,590.5,1294.1
						L590.5,1294.1z"/>
				</g>
			</g>
			<g>
				<polygon fill="#FCEE21" points="1568.4,235.1 1624.6,408.2 1806.6,408.2 1659.4,515.1 1715.6,688.2 1568.4,581.3 1421.1,688.2 
					1477.4,515.1 1330.2,408.2 1512.1,408.2 				"/>
				<path fill="#FCEE21" d="M1568.9,234.9l58.2,172.4l-2.5-1.8l182-2.1c2.6,0,4.7,2,4.7,4.6c0,1.6-0.8,3-2,3.8l-148.1,105.7l1.1-3.5
					l54.8,173.6c0.3,0.8-0.2,1.7-1,2c-0.5,0.2-1,0.1-1.4-0.2l-148.1-105.7h3.7L1423.9,692c-2.1,1.5-5,1.1-6.5-1
					c-0.9-1.2-1.1-2.8-0.7-4.2l0-0.1l56-173.2l1.8,5.5l-147.4-106.8l0,0c-2.3-1.7-2.8-4.9-1.2-7.2c1-1.4,2.6-2.1,4.3-2.1l182,2.3
					l-2.7,2l58.5-172.4c0.1-0.3,0.4-0.4,0.7-0.3C1568.7,234.7,1568.8,234.8,1568.9,234.9z M1568.4,236.9l-53.5,172.2
					c-0.4,1.2-1.5,2-2.6,2l-0.1,0l-182,2.3l3.1-9.4l147.1,107.2c1.8,1.3,2.4,3.5,1.8,5.5l-56.5,173l-7.2-5.2l148.1-105.7l0,0
					c1.1-0.8,2.6-0.7,3.6,0L1716.5,687l-2.4,1.7l-57.7-172.6c-0.4-1.3,0-2.7,1.1-3.4l0,0l146.3-108.2l2.7,8.4l-182-2.1l-0.1,0
					c-1.1,0-2.1-0.8-2.4-1.8L1568.4,236.9z"/>
			</g>
		</g>
		<g>
			<path fill="#0071BC" d="M663.7,1765.8c0,0,16.8-0.9,46.1-2.5c14.7-0.8,32.5-1.4,52.9-2.9c20.4-1.3,43.5-2.8,68.6-4.2
				c25.1-1.4,52.4-3,81.2-4.8c28.8-1.8,59.2-3.6,90.6-5.5c62.9-3.7,129.9-7.6,197-11.5c33.5-1.9,67.1-3.8,100.1-5.7
				c33-1.8,65.5-3.6,96.9-5.3c62.9-3.3,121.6-6.5,171.9-9.1c25.1-1.5,48.2-2.6,68.6-3.6c10.2-0.5,19.8-1,28.6-1.4
				c8.8-0.5,17-1,24.3-1.5c29.3-1.7,46.1-2.7,46.1-2.7s-16.7,1.7-46,4.7c-7.3,0.7-15.4,1.5-24.2,2.3c-8.8,0.7-18.4,1.6-28.6,2.4
				c-20.4,1.7-43.4,3.7-68.5,5.6c-25.1,1.9-52.3,3.9-81.1,6c-28.8,2-59.2,4.2-90.6,6.4c-31.4,2-63.9,4.1-96.9,6.2
				c-33,2-66.5,4-100.1,6c-33.5,1.8-67.1,3.6-100.1,5.4c-33,1.8-65.5,3.4-97,4.9c-31.5,1.4-61.9,2.7-90.7,4
				c-28.8,1.3-56.1,2.2-81.3,3.1c-25.2,1-48.3,1.6-68.7,2.2c-20.5,0.7-38.3,0.7-53,1C680.5,1765.6,663.7,1765.8,663.7,1765.8z"/>
		</g>
	</g>
</g>
</svg>
